<svg width="24" height="24" viewBox="0 0 24 24" fill="none" xmlns="http://www.w3.org/2000/svg">
    <path d="M6.36051 12.9679C6.35964 12.9634 6.35885 12.9589 6.35814 12.9544L5.3923 7.15942C5.34618 6.882 5.2031 6.62995 4.98854 6.44816C4.77398 6.26636 4.50186 6.16661 4.22064 6.16667H3.97918C3.8742 6.16667 3.77351 6.12496 3.69928 6.05073C3.62505 5.9765 3.58334 5.87581 3.58334 5.77083C3.58334 5.66585 3.62505 5.56517 3.69928 5.49094C3.77351 5.4167 3.8742 5.375 3.97918 5.375H4.22143C4.67769 5.37491 5.11996 5.53246 5.47341 5.82098C5.82686 6.10951 6.06976 6.51129 6.16101 6.95833H19.0208C19.082 6.95844 19.1424 6.97273 19.1971 7.00008C19.2518 7.02742 19.2995 7.06709 19.3363 7.11595C19.3731 7.16482 19.3981 7.22155 19.4093 7.2817C19.4205 7.34185 19.4176 7.40378 19.4008 7.46263L17.8175 13.0043C17.794 13.087 17.7441 13.1597 17.6756 13.2116C17.607 13.2634 17.5235 13.2915 17.4375 13.2917H7.21709L7.31605 13.883C7.36234 14.1603 7.50549 14.4122 7.72004 14.5938C7.93458 14.7755 8.20661 14.8751 8.48772 14.875H17.4375C17.5425 14.875 17.6432 14.9167 17.7174 14.9909C17.7916 15.0652 17.8333 15.1659 17.8333 15.2708C17.8333 15.3758 17.7916 15.4765 17.7174 15.5507C17.6432 15.625 17.5425 15.6667 17.4375 15.6667H8.48693C8.01843 15.6667 7.56511 15.5005 7.20764 15.1976C6.85016 14.8948 6.6117 14.475 6.53468 14.0129L6.36051 12.9679ZM8.33334 19.625C7.91342 19.625 7.51069 19.4582 7.21376 19.1613C6.91683 18.8643 6.75001 18.4616 6.75001 18.0417C6.75001 17.6217 6.91683 17.219 7.21376 16.9221C7.51069 16.6251 7.91342 16.4583 8.33334 16.4583C8.75327 16.4583 9.156 16.6251 9.45293 16.9221C9.74986 17.219 9.91668 17.6217 9.91668 18.0417C9.91668 18.4616 9.74986 18.8643 9.45293 19.1613C9.156 19.4582 8.75327 19.625 8.33334 19.625ZM8.33334 18.8333C8.54331 18.8333 8.74467 18.7499 8.89314 18.6015C9.0416 18.453 9.12501 18.2516 9.12501 18.0417C9.12501 17.8317 9.0416 17.6303 8.89314 17.4819C8.74467 17.3334 8.54331 17.25 8.33334 17.25C8.12338 17.25 7.92202 17.3334 7.77355 17.4819C7.62508 17.6303 7.54168 17.8317 7.54168 18.0417C7.54168 18.2516 7.62508 18.453 7.77355 18.6015C7.92202 18.7499 8.12338 18.8333 8.33334 18.8333ZM15.4583 19.625C15.0384 19.625 14.6357 19.4582 14.3388 19.1613C14.0418 18.8643 13.875 18.4616 13.875 18.0417C13.875 17.6217 14.0418 17.219 14.3388 16.9221C14.6357 16.6251 15.0384 16.4583 15.4583 16.4583C15.8783 16.4583 16.281 16.6251 16.5779 16.9221C16.8749 17.219 17.0417 17.6217 17.0417 18.0417C17.0417 18.4616 16.8749 18.8643 16.5779 19.1613C16.281 19.4582 15.8783 19.625 15.4583 19.625ZM15.4583 18.8333C15.6683 18.8333 15.8697 18.7499 16.0181 18.6015C16.1666 18.453 16.25 18.2516 16.25 18.0417C16.25 17.8317 16.1666 17.6303 16.0181 17.4819C15.8697 17.3334 15.6683 17.25 15.4583 17.25C15.2484 17.25 15.047 17.3334 14.8986 17.4819C14.7501 17.6303 14.6667 17.8317 14.6667 18.0417C14.6667 18.2516 14.7501 18.453 14.8986 18.6015C15.047 18.7499 15.2484 18.8333 15.4583 18.8333Z" fill="white"/>
</svg>
